<svg width="21" height="23" viewBox="0 0 21 23" fill="none" xmlns="http://www.w3.org/2000/svg">
<path d="M15.2611 7.33334V7.43334H15.3611H20.1222V21.2847C20.1222 21.61 19.993 21.9219 19.7631 22.1519C19.5331 22.3819 19.2211 22.5111 18.8959 22.5111H2.10419C1.77893 22.5111 1.467 22.3819 1.237 22.1519C1.00701 21.9219 0.877802 21.61 0.877802 21.2847V7.43334H4.15002V8.62223H2.16669H2.06669V8.72223V21.2222V21.3222H2.16669H18.8334H18.9334V21.2222V8.72223V8.62223H18.8334H15.3611H15.2611V8.72223V10.1111C15.2611 10.2688 15.1985 10.42 15.087 10.5315C14.9755 10.6429 14.8244 10.7056 14.6667 10.7056C14.509 10.7056 14.3578 10.6429 14.2464 10.5315C14.1349 10.42 14.0722 10.2688 14.0722 10.1111V5.28473C14.0722 4.33731 13.6959 3.4287 13.026 2.75878C12.356 2.08886 11.4474 1.7125 10.5 1.7125C9.55261 1.7125 8.644 2.08886 7.97408 2.75878C7.30416 3.4287 6.9278 4.33731 6.9278 5.28473V7.33334V7.43334H7.0278H12.4834V8.62223H7.0278H6.9278V8.72223V10.1458C6.9278 10.3035 6.86517 10.4547 6.75369 10.5662C6.64221 10.6777 6.49102 10.7403 6.33336 10.7403C6.1757 10.7403 6.0245 10.6777 5.91302 10.5662C5.80154 10.4547 5.73891 10.3035 5.73891 10.1458V5.28473C5.73891 4.65949 5.86206 4.04037 6.10133 3.46273C6.3406 2.88508 6.6913 2.36022 7.13341 1.91811C7.57552 1.476 8.10038 1.1253 8.67803 0.886032C9.25567 0.646764 9.87479 0.523615 10.5 0.523615C11.1253 0.523615 11.7444 0.646764 12.322 0.886032C12.8997 1.1253 13.4245 1.476 13.8666 1.91811C14.3088 2.36022 14.6595 2.88508 14.8987 3.46273C15.138 4.04037 15.2611 4.65949 15.2611 5.28473V7.33334Z" fill="white" stroke="white" stroke-width="0.2"/>
</svg>
